<svg width="32" height="32" xmlns="http://www.w3.org/2000/svg" fill="none">

 <g>
  <title>Layer 1</title>
  <rect id="svg_1" stroke="#F8F8F8" fill="white" rx="6.5" height="31" width="31" y="0.5" x="0.5"/>
  <path fill="#DDDDDD" id="svg_2" stroke-linejoin="round" stroke-linecap="round" stroke-width="1.2" stroke="#EAEAEA" d="m21.8609,11.0746c-0.3405,-0.3407 -0.7448,-0.611 -1.1898,-0.7953c-0.445,-0.1844 -0.9219,-0.2793 -1.4036,-0.2793c-0.4816,0 -0.9586,0.0949 -1.4035,0.2793c-0.445,0.1843 -0.8493,0.4546 -1.1898,0.7953l-0.7067,0.7066l-0.7066,-0.7066c-0.6878,-0.6878 -1.6207,-1.0742 -2.5934,-1.0742c-0.9727,0 -1.9055,0.3864 -2.5933,1.0742c-0.6878,0.6877 -1.0742,1.6206 -1.0742,2.5933c0,0.9727 0.3864,1.9055 1.0742,2.5933l0.7067,0.7067l5.1866,5.1867l5.1867,-5.1867l0.7067,-0.7067c0.3406,-0.3405 0.6109,-0.7448 0.7952,-1.1897c0.1844,-0.445 0.2793,-0.922 0.2793,-1.4036c0,-0.4817 -0.0949,-0.9586 -0.2793,-1.4036c-0.1843,-0.445 -0.4546,-0.8492 -0.7952,-1.1897z"/>
 </g>
</svg>